<svg width="49" height="48" viewBox="0 0 49 48" fill="none" xmlns="http://www.w3.org/2000/svg">
<g id="apartment_FILL1_wght400_GRAD0_opsz48 1">
<path id="Vector" d="M9.1875 42C8.33681 42 7.61372 41.7083 7.01823 41.125C6.42274 40.5417 6.125 39.8333 6.125 39V17.25C6.125 16.4167 6.42274 15.7083 7.01823 15.125C7.61372 14.5417 8.33681 14.25 9.1875 14.25H14.5469V9C14.5469 8.16667 14.8446 7.45833 15.4401 6.875C16.0356 6.29167 16.7587 6 17.6094 6H31.3906C32.2413 6 32.9644 6.29167 33.5599 6.875C34.1554 7.45833 34.4531 8.16667 34.4531 9V22.5H39.8125C40.6632 22.5 41.3863 22.7917 41.9818 23.375C42.5773 23.9583 42.875 24.6667 42.875 25.5V39C42.875 39.8333 42.5773 40.5417 41.9818 41.125C41.3863 41.7083 40.6632 42 39.8125 42H27.2052V33.75H21.7948V42H9.1875ZM9.1875 39H14.5469V33.75H9.1875V39ZM9.1875 30.75H14.5469V25.5H9.1875V30.75ZM9.1875 22.5H14.5469V17.25H9.1875V22.5ZM17.6094 30.75H22.9688V25.5H17.6094V30.75ZM17.6094 22.5H22.9688V17.25H17.6094V22.5ZM17.6094 14.25H22.9688V9H17.6094V14.25ZM26.0312 30.75H31.3906V25.5H26.0312V30.75ZM26.0312 22.5H31.3906V17.25H26.0312V22.5ZM26.0312 14.25H31.3906V9H26.0312V14.25ZM34.4531 39H39.8125V33.75H34.4531V39ZM34.4531 30.75H39.8125V25.5H34.4531V30.75Z" fill="url(#paint0_linear_0_15)"/>
</g>
<defs>
<linearGradient id="paint0_linear_0_15" x1="24.5" y1="6" x2="24.5" y2="42" gradientUnits="userSpaceOnUse">
<stop stop-color="#FA8451"/>
<stop offset="1" stop-color="#FA5951"/>
</linearGradient>
</defs>
</svg>
